<?xml version="1.0" encoding="utf-8"?>
<!-- Generator: Adobe Illustrator 19.2.1, SVG Export Plug-In . SVG Version: 6.00 Build 0)  -->
<svg version="1.1" id="Capa_1" xmlns="http://www.w3.org/2000/svg" xmlns:xlink="http://www.w3.org/1999/xlink" x="0px" y="0px"
	 viewBox="0 0 512 512" style="enable-background:new 0 0 512 512;" xml:space="preserve">
<style type="text/css">
	.st0{fill:#FFFFFF;}
</style>
<g>
	<g>
		<path class="st0" d="M433.4,78.6C386,31.1,323.1,5,256,5S126,31.1,78.6,78.6C31.1,126,5,188.9,5,256s26.1,130,73.6,177.4
			C126,480.9,188.9,507,256,507s130-26.1,177.4-73.6C480.9,386,507,323.1,507,256S480.9,126,433.4,78.6z M413.2,413.2
			c-42,42-97.9,65.2-157.2,65.2s-115.2-23.1-157.2-65.2c-86.7-86.7-86.7-227.8,0-314.5c42-42,97.9-65.2,157.2-65.2
			s115.2,23.1,157.2,65.2C500,185.4,500,326.6,413.2,413.2z M306.2,145c-5.6-5.1-14.7-4.6-20.1,0.7L196,235.8L175.8,256l20,20.2
			l90.4,90.4c2.7,2.7,6.4,4.2,10,4.2c3.7,0,7.3-1.4,10-4.2c5.6-5.6,5.6-14.6,0-20.2l-90-90.4l90.4-90.4
			C312.3,159.9,312.2,150.6,306.2,145z"/>
	</g>
</g>
</svg>
