<?xml version="1.0" encoding="utf-8"?>
<!-- Generator: Adobe Illustrator 19.2.1, SVG Export Plug-In . SVG Version: 6.00 Build 0)  -->
<svg version="1.1" id="Lager_1" xmlns="http://www.w3.org/2000/svg" xmlns:xlink="http://www.w3.org/1999/xlink" x="0px" y="0px"
	 viewBox="0 0 283.5 354.3" style="enable-background:new 0 0 283.5 354.3;" xml:space="preserve">
<style type="text/css">
	.st0{fill:#FFFFFF;}
	.st1{font-family:'Arial-BoldMT';}
	.st2{font-size:5px;}
</style>
<g>
	<path class="st0" d="M141.6,34.7c-59,0-107,48-107,107c0,59,48,107,107,107c59,0,107-48,107-107C248.6,82.7,200.6,34.7,141.6,34.7z
		 M141.6,245.1c-57,0-103.4-46.4-103.4-103.4S84.6,38.3,141.6,38.3S245,84.7,245,141.7S198.6,245.1,141.6,245.1z"/>
	<path class="st0" d="M82.7,86.2c1.9,0,3.5-1.6,3.5-3.5s-1.6-3.5-3.5-3.5s-3.5,1.6-3.5,3.5C79.2,84.7,80.8,86.2,82.7,86.2z"/>
	<path class="st0" d="M61.1,123.6c1.9,0,3.5-1.6,3.5-3.5s-1.5-3.5-3.5-3.5s-3.5,1.6-3.5,3.5C57.7,122,59.2,123.6,61.1,123.6z"/>
	<path class="st0" d="M61.1,166.7c1.9,0,3.5-1.5,3.5-3.5c0-1.9-1.5-3.5-3.5-3.5s-3.5,1.6-3.5,3.5C57.7,165.1,59.2,166.7,61.1,166.7z
		"/>
	<path class="st0" d="M86.1,200.6c0-1.9-1.6-3.5-3.5-3.5s-3.5,1.6-3.5,3.5c0,1.9,1.6,3.5,3.5,3.5C84.6,204,86.1,202.5,86.1,200.6z"
		/>
	<path class="st0" d="M120,218.7c-1.9,0-3.5,1.5-3.5,3.5c0,1.9,1.6,3.5,3.5,3.5s3.5-1.6,3.5-3.5C123.5,220.2,121.9,218.7,120,218.7z
		"/>
	<path class="st0" d="M163.2,225.6c1.9,0,3.5-1.6,3.5-3.5c0-1.9-1.5-3.5-3.5-3.5c-1.9,0-3.5,1.5-3.5,3.5
		C159.7,224.1,161.2,225.6,163.2,225.6z"/>
	<path class="st0" d="M200.5,197.1c-1.9,0-3.5,1.6-3.5,3.5c0,1.9,1.6,3.5,3.5,3.5c1.9,0,3.5-1.6,3.5-3.5
		C204,198.7,202.4,197.1,200.5,197.1z"/>
	<path class="st0" d="M222.1,166.7c1.9,0,3.5-1.5,3.5-3.5c0-1.9-1.6-3.5-3.5-3.5c-1.9,0-3.5,1.6-3.5,3.5
		C218.6,165.1,220.2,166.7,222.1,166.7z"/>
	<path class="st0" d="M220.7,198.2c11.4-15.9,18.2-35.5,18.2-56.5s-6.8-40.6-18.2-56.5c-0.1-0.3-0.3-0.5-0.5-0.7
		c-6-8.2-13.2-15.4-21.4-21.4c-0.2-0.2-0.4-0.4-0.7-0.5c-5.1-3.7-10.6-6.9-16.4-9.5c-0.2-0.1-0.3-0.2-0.5-0.2
		c-12.1-5.4-25.5-8.4-39.6-8.4c-21.1,0-40.6,6.8-56.5,18.2c-0.3,0.1-0.5,0.3-0.7,0.5C76.2,69,68.9,76.3,63,84.5
		c-0.2,0.2-0.4,0.4-0.5,0.7c-11.4,15.9-18.2,35.5-18.2,56.5c0,21.1,6.8,40.6,18.2,56.5c0.1,0.3,0.3,0.5,0.5,0.7
		c6,8.2,13.2,15.4,21.4,21.4c0.2,0.2,0.4,0.4,0.6,0.5c5.2,3.7,10.7,6.9,16.6,9.6c0.1,0.1,0.2,0.1,0.3,0.2
		c12.1,5.4,25.5,8.5,39.7,8.5s27.5-3,39.7-8.5c0.1,0,0.2-0.1,0.3-0.2c5.9-2.6,11.4-5.9,16.6-9.6c0.2-0.1,0.5-0.3,0.7-0.5
		c8.2-6,15.4-13.2,21.4-21.4C220.4,198.7,220.6,198.5,220.7,198.2z M187.9,201.3c3.3,1.2,6,3.7,7.5,7c1.4,3.1,1.6,6.4,0.6,9.6
		c-4.8,3.5-10,6.5-15.4,9c-1.1-0.2-2.2-0.6-3.2-1.1c-3.2-1.6-5.6-4.3-6.7-7.7c-1.1-3.2-0.9-6.6,0.5-9.6c4.8-2.1,9.3-4.7,13.5-7.8
		C185.7,200.7,186.8,200.9,187.9,201.3z M154.7,214.2c-0.2-0.2-0.4-0.4-0.6-0.6c4.4-0.8,8.6-1.9,12.6-3.4c-0.7,3-0.5,6,0.5,9
		c1.4,4.3,4.4,7.7,8.4,9.8c-6.3,2.5-12.9,4.3-19.8,5.3c1.5-2.3,2.4-4.9,2.7-7.7C158.9,222.1,157.6,217.7,154.7,214.2z M141.6,211
		c-38.2,0-69.3-31.1-69.3-69.3s31.1-69.3,69.3-69.3c38.2,0,69.3,31.1,69.3,69.3C210.9,179.9,179.8,211,141.6,211z M127.4,234.3
		c-6.9-1-13.5-2.9-19.8-5.3c2.4-1.2,4.5-3,6.1-5.3c2.6-3.7,3.7-8.2,2.9-12.7c0-0.3-0.1-0.6-0.2-0.8c4.1,1.5,8.3,2.6,12.6,3.4
		c-2.1,2.2-3.5,5-4.1,8C124.1,226,124.9,230.5,127.4,234.3z M87.3,217.9c-0.3-1.1-0.6-2.2-0.7-3.3c-0.4-7.2,4.9-13.3,12-14
		c4.2,3.1,8.7,5.7,13.5,7.8c0.5,1,0.8,2.1,1,3.2c0.6,3.5-0.2,7-2.3,10c-2,2.7-4.8,4.6-8.1,5.3C97.3,224.4,92.1,221.4,87.3,217.9z
		 M56.4,180.6c0.2-1.1,0.6-2.2,1.1-3.2c1.6-3.2,4.3-5.6,7.7-6.7c3.2-1.1,6.6-0.9,9.6,0.5c2.1,4.8,4.7,9.3,7.8,13.5
		c-0.1,1.1-0.3,2.3-0.7,3.3c-2.5,6.7-9.8,10.2-16.6,8C61.9,191.2,58.9,186,56.4,180.6z M49,155.9c2.3,1.5,4.9,2.4,7.7,2.7
		c0.5,0.1,1.1,0.1,1.6,0.1c3.9,0,7.7-1.4,10.8-3.9c0.2-0.2,0.4-0.4,0.6-0.6c0.8,4.4,1.9,8.6,3.4,12.6c-3-0.7-6-0.5-9,0.5
		c-4.3,1.4-7.7,4.4-9.8,8.4C51.9,169.4,50.1,162.7,49,155.9z M65.4,87.4c1.1-0.3,2.2-0.6,3.3-0.7c3.6-0.2,7,1,9.6,3.3
		c2.5,2.2,4.1,5.3,4.4,8.6c-3.1,4.2-5.7,8.7-7.8,13.5c-1,0.5-2.1,0.8-3.2,1c-7.1,1.2-13.8-3.4-15.2-10.4
		C58.9,97.3,61.9,92.2,65.4,87.4z M69.4,117c0.9,0,1.9-0.1,2.8-0.2c0.3,0,0.6-0.1,0.8-0.2c-1.5,4.1-2.6,8.3-3.4,12.6
		c-2.2-2.1-5-3.5-8-4.1c-4.4-0.9-8.9-0.1-12.7,2.4c1-6.9,2.9-13.5,5.3-19.8C57.2,113.3,63,117,69.4,117z M51,130.5
		c3-2,6.5-2.6,10-1.9c3.3,0.7,6.1,2.5,8.1,5.2c-0.3,2.6-0.4,5.2-0.4,7.8c0,2.6,0.1,5.2,0.4,7.8c-0.7,0.9-1.4,1.8-2.3,2.5
		c-2.7,2.3-6.2,3.3-9.8,3c-3.4-0.3-6.4-1.9-8.7-4.4c-0.3-2.9-0.4-5.9-0.4-8.9c0-3,0.2-5.9,0.4-8.9C49.1,131.9,50,131.2,51,130.5z
		 M95.3,82c-6.7-2.5-10.2-9.8-8-16.6c4.8-3.5,10-6.5,15.4-9c1.1,0.2,2.2,0.6,3.2,1.1c6.4,3.2,9.1,10.9,6.2,17.4
		c-4.8,2.1-9.3,4.7-13.5,7.8C97.5,82.7,96.4,82.4,95.3,82z M128.5,69.2c0.2,0.2,0.4,0.4,0.6,0.6c-4.4,0.8-8.6,1.9-12.6,3.4
		c1.6-7.4-1.8-15.2-8.9-18.8c6.3-2.5,12.9-4.3,19.8-5.3c-1.5,2.3-2.4,4.9-2.7,7.7C124.3,61.3,125.6,65.7,128.5,69.2z M195.9,65.4
		c0.3,1.1,0.6,2.2,0.7,3.3c0.2,3.6-1,7-3.4,9.6c-2.2,2.5-5.3,4.1-8.6,4.4c-4.2-3.1-8.7-5.7-13.5-7.8c-0.5-1-0.8-2.1-1-3.2
		c-0.6-3.5,0.2-7,2.3-10c2-2.7,4.8-4.6,8.1-5.3C185.9,59,191.1,62,195.9,65.4z M169.4,59.7c-2.6,3.7-3.7,8.2-2.9,12.7
		c0,0.3,0.1,0.6,0.2,0.8c-4.1-1.5-8.3-2.6-12.6-3.4c5.1-5.6,6-14.1,1.7-20.7c6.9,1,13.5,2.9,19.8,5.3
		C173.1,55.6,171,57.4,169.4,59.7z M226.8,102.8c-0.2,1.1-0.6,2.2-1.1,3.2c-3.2,6.4-10.9,9.1-17.4,6.2c-2.1-4.8-4.7-9.3-7.8-13.5
		c0.1-1.1,0.3-2.3,0.7-3.3c1.2-3.3,3.7-6,7-7.5c3.1-1.4,6.4-1.6,9.6-0.6C221.3,92.2,224.3,97.3,226.8,102.8z M234.2,127.5
		c-6.1-3.9-14.2-3.7-20.1,1.1c-0.2,0.2-0.4,0.4-0.6,0.6c-0.8-4.3-1.9-8.6-3.4-12.6c1.2,0.3,2.4,0.4,3.6,0.4c1.8,0,3.6-0.3,5.4-0.9
		c4.3-1.4,7.7-4.4,9.8-8.4C231.3,114,233.1,120.6,234.2,127.5z M213.4,154.2c2.2,2.1,5,3.5,8,4.1c1.2,0.2,2.3,0.4,3.5,0.4
		c3.3,0,6.5-0.9,9.2-2.8c-1,6.9-2.9,13.5-5.3,19.8c-1.2-2.4-3-4.5-5.3-6.1c-3.7-2.6-8.2-3.7-12.7-2.9c-0.3,0-0.6,0.1-0.8,0.2
		C211.6,162.8,212.7,158.5,213.4,154.2z M232.2,152.8c-3,2-6.5,2.6-10,1.9c-3.3-0.7-6.1-2.5-8.1-5.2c0.3-2.6,0.4-5.2,0.4-7.8
		c0-2.6-0.1-5.2-0.4-7.8c0.7-0.9,1.4-1.8,2.3-2.5c5.5-4.6,13.7-3.9,18.4,1.4c0.3,2.9,0.4,5.9,0.4,8.9c0,3-0.2,5.9-0.4,8.9
		C234.1,151.4,233.2,152.2,232.2,152.8z M208.3,171.2c1-0.5,2.1-0.8,3.2-1c3.5-0.6,7,0.2,10,2.3c2.7,2,4.6,4.8,5.3,8.1
		c-2.5,5.4-5.5,10.6-8.9,15.4c-1.1,0.3-2.2,0.6-3.3,0.7c-7.1,0.4-13.3-4.9-14-12C203.5,180.5,206.2,176,208.3,171.2z M214.6,83.1
		c-2.7-0.1-5.4,0.4-7.9,1.5c-4.1,1.9-7.3,5.3-8.8,9.5c-0.1,0.3-0.2,0.6-0.3,0.9c-2.8-3.4-5.9-6.5-9.3-9.3c2.9-0.9,5.5-2.6,7.6-4.9
		c3-3.4,4.5-7.7,4.3-12.1C205.5,72.9,210.3,77.8,214.6,83.1z M150.5,48.4c0.9,0.8,1.6,1.6,2.3,2.6c3.9,6,2.4,14-3.3,18.1
		c-2.6-0.3-5.2-0.4-7.8-0.4c-2.6,0-5.2,0.1-7.8,0.4c-0.9-0.7-1.8-1.4-2.5-2.3c-2.3-2.7-3.3-6.2-3-9.8c0.3-3.4,1.9-6.4,4.4-8.7
		c2.9-0.3,5.9-0.4,8.9-0.4C144.6,48,147.5,48.2,150.5,48.4z M83,68.7c-0.4,7.2,3.9,14.1,11,16.7c0.3,0.1,0.6,0.2,0.9,0.3
		c-3.4,2.8-6.5,5.9-9.3,9.3c-0.9-2.9-2.6-5.5-4.9-7.6c-3.4-3-7.6-4.5-12.1-4.3C72.9,77.8,77.7,72.9,83,68.7z M68.6,200.3
		c0.3,0,0.6,0,0.9,0c2.4,0,4.8-0.5,7-1.5c4.1-1.9,7.3-5.3,8.8-9.5c0.1-0.3,0.2-0.6,0.3-0.9c2.8,3.4,5.9,6.5,9.3,9.3
		c-7.2,2.3-12.3,9.2-11.9,17C77.7,210.4,72.9,205.6,68.6,200.3z M132.7,234.9c-0.9-0.8-1.6-1.6-2.3-2.6c-2-3-2.6-6.5-1.9-10
		c0.7-3.3,2.5-6.1,5.2-8.1c2.6,0.3,5.2,0.4,7.8,0.4c2.6,0,5.2-0.1,7.8-0.4c0.9,0.7,1.8,1.4,2.5,2.3c2.3,2.7,3.3,6.2,3,9.8
		c-0.3,3.4-1.9,6.4-4.4,8.7c-2.9,0.3-5.9,0.4-8.9,0.4C138.6,235.3,135.6,235.2,132.7,234.9z M200.2,214.7c0.1-2.7-0.4-5.4-1.5-7.9
		c-1.9-4.1-5.3-7.3-9.5-8.8c-0.3-0.1-0.6-0.2-0.9-0.3c3.4-2.8,6.5-5.9,9.3-9.3c2.2,6.9,8.7,11.9,16.2,11.9c0.3,0,0.6,0,0.9,0
		C210.3,205.6,205.5,210.4,200.2,214.7z"/>
	<path class="st0" d="M222.1,116.7c-1.9,0-3.5,1.6-3.5,3.5s1.5,3.5,3.5,3.5c1.9,0,3.5-1.6,3.5-3.5
		C225.5,118.2,224,116.7,222.1,116.7z"/>
	<path class="st0" d="M197,82.8c0,1.9,1.6,3.5,3.5,3.5c1.9,0,3.5-1.6,3.5-3.5s-1.6-3.5-3.5-3.5C198.6,79.3,197,80.9,197,82.8z"/>
	<path class="st0" d="M163.2,64.7c1.9,0,3.5-1.5,3.5-3.5s-1.5-3.5-3.5-3.5c-1.9,0-3.5,1.5-3.5,3.5S161.2,64.7,163.2,64.7z"/>
	<path class="st0" d="M120,57.8c-1.9,0-3.5,1.5-3.5,3.5s1.6,3.5,3.5,3.5s3.5-1.5,3.5-3.5S121.9,57.8,120,57.8z"/>
	<path class="st0" d="M141.6,78.4c-34.9,0-63.2,28.4-63.2,63.2s28.4,63.2,63.2,63.2s63.2-28.4,63.2-63.2S176.5,78.4,141.6,78.4z
		 M141.6,201.3c-32.9,0-59.6-26.7-59.6-59.6c0-32.9,26.7-59.6,59.6-59.6s59.6,26.7,59.6,59.6C201.2,174.5,174.5,201.3,141.6,201.3z"
		/>
</g>
<text transform="matrix(1 0 0 1 0 298.464)" class="st1 st2">Created by luism</text>
<text transform="matrix(1 0 0 1 0 303.464)" class="st1 st2">from the Noun Project</text>
</svg>
