<?xml version="1.0" encoding="utf-8"?>
<!-- Generator: Adobe Illustrator 19.2.1, SVG Export Plug-In . SVG Version: 6.00 Build 0)  -->
<svg version="1.1" id="Lager_1" xmlns="http://www.w3.org/2000/svg" xmlns:xlink="http://www.w3.org/1999/xlink" x="0px" y="0px"
	 viewBox="0 0 100 125" style="enable-background:new 0 0 100 125;" xml:space="preserve">
<style type="text/css">
	.st0{fill:#FFFFFF;}
	.st1{font-family:'Arial-BoldMT';}
	.st2{font-size:5px;}
</style>
<path class="st0" d="M87.1,29.7L69.7,12.3c-0.5-0.5-1.4-0.5-1.9,0l-7.2,7.2c-0.5,0.5-0.5,1.4,0,1.9l3.4,3.4L15.5,73.3
	c-0.5,0.5-0.5,1.4,0,1.9l8.7,8.7c0.3,0.3,0.6,0.4,0.9,0.4c0.3,0,0.7-0.1,0.9-0.4l48.6-48.6l3.4,3.4c0.3,0.3,0.6,0.4,0.9,0.4
	c0.3,0,0.7-0.1,0.9-0.4l7.2-7.2c0.2-0.2,0.4-0.6,0.4-0.9S87.3,29.9,87.1,29.7z M25.1,81.1l-6.8-6.8l3.1-3.1l2.5,2.5
	c0.3,0.3,0.6,0.4,0.9,0.4c0.3,0,0.7-0.1,0.9-0.4c0.5-0.5,0.5-1.4,0-1.9l-2.5-2.5l3.1-3.1l2.5,2.5c0.3,0.3,0.6,0.4,0.9,0.4
	c0.3,0,0.7-0.1,0.9-0.4c0.5-0.5,0.5-1.4,0-1.9l-2.5-2.5l3.1-3.1l2.5,2.5c0.3,0.3,0.6,0.4,0.9,0.4c0.3,0,0.7-0.1,0.9-0.4
	c0.5-0.5,0.5-1.4,0-1.9l-2.5-2.5l3.1-3.1l2.5,2.5c0.3,0.3,0.6,0.4,0.9,0.4s0.7-0.1,0.9-0.4c0.5-0.5,0.5-1.4,0-1.9l-2.5-2.5l3.1-3.1
	l2.5,2.5c0.3,0.3,0.6,0.4,0.9,0.4s0.7-0.1,0.9-0.4c0.5-0.5,0.5-1.4,0-1.9l-2.5-2.5l3.1-3.1l2.5,2.5c0.3,0.3,0.6,0.4,0.9,0.4
	c0.3,0,0.7-0.1,0.9-0.4c0.5-0.5,0.5-1.4,0-1.9L48,44.6l3.1-3.1l2.5,2.5c0.3,0.3,0.6,0.4,0.9,0.4s0.7-0.1,0.9-0.4
	c0.5-0.5,0.5-1.4,0-1.9L53,39.6l3.1-3.1l2.5,2.5c0.3,0.3,0.6,0.4,0.9,0.4c0.3,0,0.7-0.1,0.9-0.4c0.5-0.5,0.5-1.4,0-1.9l-2.5-2.5
	l3.1-3.1l2.5,2.5c0.3,0.3,0.6,0.4,0.9,0.4c0.3,0,0.7-0.1,0.9-0.4c0.5-0.5,0.5-1.4,0-1.9l-2.5-2.5l3.1-3.1l6.8,6.8L25.1,81.1z
	 M79,35.9L63.5,20.4l5.3-5.3l6.8,6.8l-1.3,1.3c-0.5,0.5-0.5,1.4,0,1.9c0.3,0.3,0.6,0.4,0.9,0.4s0.7-0.1,0.9-0.4l1.3-1.3l6.8,6.8
	L79,35.9z"/>
<text transform="matrix(1 0 0 1 0 115)" class="st1 st2">Created by Artem  Kovyazin</text>
<text transform="matrix(1 0 0 1 0 120)" class="st1 st2">from the Noun Project</text>
</svg>
