<?xml version="1.0" encoding="utf-8"?>
<!-- Generator: Adobe Illustrator 19.2.1, SVG Export Plug-In . SVG Version: 6.00 Build 0)  -->
<svg version="1.1" id="Capa_1" xmlns="http://www.w3.org/2000/svg" xmlns:xlink="http://www.w3.org/1999/xlink" x="0px" y="0px"
	 viewBox="0 0 512 512" style="enable-background:new 0 0 512 512;" xml:space="preserve">
<style type="text/css">
	.st0{fill:#FFFFFF;}
</style>
<g>
	<g>
		<path class="st0" d="M433.3,78.7C385.9,31.3,323,5.2,256,5.2S126.1,31.3,78.7,78.7S5.2,189,5.2,256s26.1,129.9,73.5,177.3
			S189,506.8,256,506.8s129.9-26.1,177.3-73.5S506.8,323,506.8,256S480.7,126.1,433.3,78.7z M413.1,413.1
			c-42,42-97.8,65.1-157.1,65.1s-115.1-23.1-157.1-65.1c-86.6-86.6-86.6-227.6,0-314.3c42-42,97.8-65.1,157.1-65.1
			s115.1,23.1,157.1,65.1C499.8,185.5,499.8,326.5,413.1,413.1z"/>
		<path class="st0" d="M366.5,145.5c-5.6-5.6-14.6-5.6-20.2,0L256,235.8l-90.3-90.3c-5.6-5.6-14.6-5.6-20.2,0
			c-5.6,5.6-5.6,14.6,0,20.2l90.3,90.3l-90.3,90.3c-5.6,5.6-5.6,14.6,0,20.2c2.7,2.7,6.4,4.2,10,4.2s7.3-1.4,10-4.2l90.3-90.3
			l90.3,90.3c2.7,2.7,6.4,4.2,10,4.2c3.7,0,7.3-1.4,10-4.2c5.6-5.6,5.6-14.6,0-20.2L276.2,256l90.3-90.3
			C372.1,160.1,372.1,151.1,366.5,145.5z"/>
	</g>
</g>
</svg>
