<?xml version="1.0" encoding="utf-8"?>
<!-- Generator: Adobe Illustrator 19.2.1, SVG Export Plug-In . SVG Version: 6.00 Build 0)  -->
<svg version="1.1" id="Lager_1" xmlns="http://www.w3.org/2000/svg" xmlns:xlink="http://www.w3.org/1999/xlink" x="0px" y="0px"
	 viewBox="0 0 100 125" style="enable-background:new 0 0 100 125;" xml:space="preserve">
<style type="text/css">
	.st0{fill:#FFFFFF;}
	.st1{font-family:'Arial-BoldMT';}
	.st2{font-size:5px;}
</style>
<path class="st0" d="M81.3,18.4c-0.3-0.3-0.9-0.3-1.2,0l-1.3,1.3c-0.4-0.4-0.8-0.9-1.2-1.3c-2-2-4.2-3.6-6.2-4.5c-2.2-1-4-1-5,0
	c0,0,0,0,0,0c0,0,0,0,0,0C66.3,14,49.6,32.3,40.9,41c-8.5,8.5-26.6,25-26.7,25.1c0,0,0,0,0,0c0,0,0,0,0,0c0,0,0,0,0,0c0,0,0,0,0,0
	c0,0,0,0,0,0.1c-1.4,1.5-1.6,3.8-0.7,6.7c0.9,2.7,2.8,5.6,5.3,8.1c2.5,2.5,5.4,4.4,8.1,5.3c1.1,0.4,2.2,0.6,3.2,0.6
	c1.5,0,2.7-0.4,3.6-1.3c0,0,0,0,0,0c0,0,0,0,0,0c0.2-0.2,17.1-18.8,25.8-27.4c8.5-8.5,26.3-24.7,26.5-24.9c0,0,0,0,0,0c0,0,0,0,0,0
	C88.8,30.3,86.8,23.8,81.3,18.4z M42.1,42.3c8.6-8.6,25-26.6,25.6-27.2c0.3-0.3,1.3-0.4,3,0.4c1.8,0.8,3.8,2.3,5.6,4.1
	c0.4,0.4,0.8,0.9,1.2,1.3L27.7,70.7c-0.3,0.3-0.3,0.9,0,1.2c1.7,1.7,3,3.5,4,5.3l-1.4,1.4c-0.5-2.4-2.6-5.4-5.1-8
	c-2.5-2.5-5.5-4.6-7.9-5.1C22.3,61.1,35.3,49.1,42.1,42.3z M24,72c4,4,5.4,7.8,4.5,8.7l0,0l0,0c-0.3,0.3-1.2,0.3-2.1-0.1
	c-1.3-0.5-2.7-1.5-4-2.8c-1.2-1.2-2.1-2.5-2.7-3.7l3.3-3C23.3,71.3,23.6,71.6,24,72z M27.3,84.7c-2.4-0.8-5.1-2.6-7.4-4.9
	s-4.1-5-4.9-7.4c-0.7-2.2-0.6-4,0.3-4.9c0.7-0.6,3.2,0.1,6.2,2.4L18,73.1c0,0,0,0,0,0c-0.1,0.1-0.2,0.2-0.2,0.3c0,0.1,0,0.1,0,0.2
	c0,0.1,0,0.1,0,0.2c0,0.1,0,0.2,0.1,0.3c0,0,0,0,0,0c0.6,1.6,1.8,3.3,3.3,4.9c1.5,1.5,3.1,2.6,4.6,3.2c0.8,0.3,1.5,0.5,2.1,0.5
	c0.8,0,1.4-0.2,1.9-0.7c0,0,0,0,0,0c0,0,0,0,0,0c0,0,0,0,0,0l2.7-2.9c0,0.1,0.1,0.2,0.1,0.4c0.7,2.2,0.6,4-0.3,5c0,0,0,0,0,0
	C31.3,85.3,29.5,85.4,27.3,84.7z M58.1,56.9C51.5,63.6,40,76,34.8,81.6c0-0.8-0.2-1.8-0.5-2.7c-0.2-0.6-0.4-1.1-0.7-1.7
	c0,0,0,0,0-0.1c-0.9-1.9-2.3-3.9-4-5.7l51.1-51.1c4.2,4.5,6,9.7,3.9,11.7C84.1,32.5,66.5,48.5,58.1,56.9z"/>
<text transform="matrix(1 0 0 1 0 115)" class="st1 st2">Created by Sergey Demushkin</text>
<text transform="matrix(1 0 0 1 0 120)" class="st1 st2">from the Noun Project</text>
</svg>
