<?xml version="1.0" encoding="utf-8"?>
<!-- Generator: Adobe Illustrator 19.2.1, SVG Export Plug-In . SVG Version: 6.00 Build 0)  -->
<svg version="1.1" id="Layer_1" xmlns="http://www.w3.org/2000/svg" xmlns:xlink="http://www.w3.org/1999/xlink" x="0px" y="0px"
	 viewBox="0 0 400 400" style="enable-background:new 0 0 400 400;" xml:space="preserve">
<style type="text/css">
	.st0{fill:#FFFFFF;}
</style>
<path class="st0" d="M269.2,142C243,106.5,200,90.4,200,90.4s-43.3,15.6-69.5,51.4L108,129c34.1-53.5,92-95.2,92-95.2
	s57.6,42.2,91.7,95.3L269.2,142z M111,200c0,20.6,3.9,34.7,15.7,49.8c-10,1.4-18.1,9-20,18.8c-16.4-20-23.1-40.7-23.1-68.6
	c0-20.7,7.3-41.4,18.3-60.9l22.1,12.5C116.2,165.2,111,181.3,111,200z M131.3,260.9c11-1.1,20.2,8.1,19.1,19.1
	c-0.8,8.1-7.4,14.7-15.5,15.5c-11,1.1-20.2-8.1-19.1-19.1C116.6,268.3,123.2,261.7,131.3,260.9z M160.7,279.1L160.7,279.1
	c12.8,7.1,23.6,9.8,39.3,9.8s26.9-2.3,39.7-9.4l0,0c-0.2,10.4,6.3,19.3,15.5,22.8c-17.2,10.1-33.8,14.1-55.2,14.1
	s-37.6-4.4-54.8-14.4C154.4,298.5,160.9,289.5,160.7,279.1z M249.6,280c-1.1-11,8.1-20.2,19.1-19.1c8.1,0.8,14.7,7.4,15.5,15.5
	c1.1,11-8.1,20.2-19.1,19.1C257,294.7,250.4,288.1,249.6,280z M201.5,278.9 M278.9,201.5 M289,200c0-18.6-5.3-34.6-13.3-48.2
	l22.1-12.5c11.1,19.6,18.6,40.3,18.6,60.8c0,27.9-7.7,49.7-24.1,69.7c-2-9.8-10-17.5-20-18.8C284,235.8,289,220.6,289,200z"/>
<g>
</g>
<circle class="st0" cx="199.8" cy="199.5" r="79"/>
</svg>
