<?xml version="1.0" encoding="utf-8"?>
<!-- Generator: Adobe Illustrator 19.2.1, SVG Export Plug-In . SVG Version: 6.00 Build 0)  -->
<svg version="1.1" id="Lager_1" xmlns="http://www.w3.org/2000/svg" xmlns:xlink="http://www.w3.org/1999/xlink" x="0px" y="0px"
	 viewBox="0 0 84 105" style="enable-background:new 0 0 84 105;" xml:space="preserve">
<style type="text/css">
	.st0{fill:#FFFFFF;}
	.st1{font-family:'Arial-BoldMT';}
	.st2{font-size:5px;}
</style>
<g transform="matrix(-0.76072,0.76072,-0.648622,-0.648622,102.203,36.7549)">
	<path class="st0" d="M67.3,30.2c0.5,0,0.9,0.1,1.4,0.1c0.9,0.2,1.9,0.5,2.7,1c1.2,0.6,2.2,1.6,3.1,2.7c0.9,1.1,1.5,2.3,2,3.7
		c0.4,1.2,0.7,2.6,0.7,3.9c0,1.3-0.1,2.6-0.4,3.8c-0.3,1.2-0.8,2.4-1.4,3.5c-1.1,1.9-2.7,3.3-4.5,4.2c-0.8,0.4-1.6,0.6-2.4,0.7
		c-0.4,0.1-0.8,0.1-1.2,0.1C51.8,54,36.4,54,21,53.9c-0.4,0-0.8,0-1.2-0.1c-0.8-0.1-1.6-0.4-2.4-0.7c-1.8-0.8-3.4-2.3-4.5-4.2
		c-0.6-1.1-1.1-2.2-1.4-3.5c-0.3-1.2-0.5-2.5-0.4-3.8c0-1.3,0.3-2.6,0.7-3.9c0.5-1.4,1.1-2.6,2-3.7c0.9-1.1,1.9-2,3.1-2.7
		c0.9-0.5,1.8-0.8,2.7-1c0.5-0.1,0.9-0.1,1.4-0.1C36.4,30.1,51.8,30.1,67.3,30.2z M21.1,32.3c-0.4,0-0.8,0-1.2,0.1
		c-0.8,0.1-1.5,0.4-2.3,0.8c-1,0.5-1.9,1.3-2.6,2.2c-0.7,0.9-1.3,1.9-1.7,3.1c-0.4,1-0.6,2.1-0.6,3.2c0,1.1,0.1,2.2,0.3,3.2
		c0.2,1,0.6,1.9,1.1,2.7c0.9,1.7,2.3,3,3.9,3.7c0.6,0.3,1.3,0.5,2,0.6c0.3,0,0.6,0.1,1,0.1c15.4,0.1,30.8,0.1,46.3,0
		c0.3,0,0.6,0,1-0.1c0.7-0.1,1.4-0.3,2-0.6c1.5-0.7,2.8-1.9,3.7-3.4c0.5-0.9,0.9-1.8,1.2-2.9c0.3-1,0.4-2.1,0.3-3.2
		c0-1.1-0.2-2.2-0.6-3.2c-0.4-1.1-0.9-2.2-1.7-3.1c-0.7-0.9-1.6-1.7-2.6-2.2c-0.7-0.4-1.5-0.7-2.3-0.8c-0.4-0.1-0.8-0.1-1.2-0.1
		C51.9,32.2,36.5,32.3,21.1,32.3z"/>
</g>
<g transform="matrix(-0.707107,0.707107,-0.707107,-0.707107,93.1022,35.348)">
	<path class="st0" d="M28,17.7c0.1,0,0.2,0,0.3,0.1c0.2,0.1,0.4,0.3,0.5,0.5c0,0.1,0.1,0.2,0.1,0.3c0,0.9,0,1.7,0,2.6
		c0,0.1,0,0.2-0.1,0.3c-0.1,0.2-0.3,0.4-0.5,0.5c-0.1,0-0.2,0.1-0.3,0.1c-2.2,0.1-4.5,0-6.7,0c-0.1,0-0.2,0-0.3-0.1
		c-0.2-0.1-0.4-0.3-0.5-0.5c0-0.1-0.1-0.2-0.1-0.3c0-0.9,0-1.7,0-2.6c0-0.1,0-0.2,0-0.3c0.1-0.3,0.3-0.5,0.5-0.6
		c0.1,0,0.2-0.1,0.3-0.1C23.5,17.7,25.7,17.7,28,17.7z M22.2,19.6v0.7H27v-0.7C25.4,19.6,23.8,19.6,22.2,19.6z"/>
</g>
<g transform="matrix(-0.707107,0.707107,-0.707107,-0.707107,65.735,62.7152)">
	<path class="st0" d="M24,17.7c0.1,0,0.2,0,0.3,0.1c0.2,0.1,0.4,0.3,0.5,0.5c0,0.1,0.1,0.2,0.1,0.3c0,0.9,0,1.7,0,2.6
		c0,0.1,0,0.2,0,0.3c-0.1,0.3-0.3,0.5-0.5,0.6c-0.1,0-0.2,0.1-0.3,0.1c-2.2,0.1-4.5,0-6.7,0c-0.1,0-0.2,0-0.3-0.1
		c-0.2-0.1-0.4-0.3-0.5-0.5c0-0.1-0.1-0.2-0.1-0.3c0-0.9,0-1.7,0-2.6c0-0.1,0-0.2,0.1-0.3c0.1-0.2,0.3-0.4,0.5-0.5
		c0.1,0,0.2-0.1,0.3-0.1C19.5,17.7,21.8,17.7,24,17.7z M18.2,19.6v0.7h4.8v-0.7C21.5,19.6,19.9,19.6,18.2,19.6z"/>
</g>
<g transform="matrix(-0.707107,0.707107,-0.707107,-0.707107,75.4836,17.7294)">
	<path class="st0" d="M28,15.2c0.1,0,0.2,0,0.3,0.1c0.2,0.1,0.4,0.3,0.5,0.5c0,0.1,0.1,0.2,0.1,0.3c0,0.9,0,1.7,0,2.6
		c0,0.1,0,0.2,0,0.3c-0.1,0.3-0.3,0.5-0.5,0.6c-0.1,0-0.2,0.1-0.3,0.1c-2.2,0.1-4.5,0-6.7,0c-0.1,0-0.2,0-0.3-0.1
		c-0.2-0.1-0.4-0.3-0.5-0.5c0-0.1-0.1-0.2-0.1-0.3c0-0.9,0-1.7,0-2.6c0-0.1,0-0.2,0-0.3c0.1-0.3,0.3-0.5,0.5-0.6
		c0.1,0,0.2-0.1,0.3-0.1C23.5,15.1,25.7,15.1,28,15.2z M22.2,17.1v0.7H27v-0.7C25.4,17.1,23.8,17.1,22.2,17.1z"/>
</g>
<g transform="matrix(-0.707107,0.707107,-0.707107,-0.707107,48.1164,45.0966)">
	<path class="st0" d="M24,15.2c0.1,0,0.2,0,0.3,0.1c0.2,0.1,0.4,0.3,0.5,0.5c0,0.1,0.1,0.2,0.1,0.3c0,0.9,0,1.7,0,2.6
		c0,0.1,0,0.2-0.1,0.3c-0.1,0.2-0.3,0.4-0.5,0.5c-0.1,0-0.2,0.1-0.3,0.1c-2.2,0.1-4.5,0-6.7,0c-0.1,0-0.2,0-0.3,0
		c-0.3-0.1-0.5-0.3-0.6-0.5c0-0.1-0.1-0.2-0.1-0.3c0-0.9,0-1.7,0-2.6c0-0.1,0-0.2,0.1-0.3c0.1-0.2,0.3-0.4,0.5-0.5
		c0.1,0,0.2-0.1,0.3-0.1C19.5,15.1,21.8,15.1,24,15.2z M18.2,17.1v0.7h4.8v-0.7C21.5,17.1,19.9,17.1,18.2,17.1z"/>
</g>
<g transform="matrix(-1.9461,1.9461,-1.9461,-1.9461,96.7701,11.3805)">
	<ellipse transform="matrix(0.7071 -0.7071 0.7071 0.7071 0.6628 12.3287)" class="st0" cx="15.2" cy="5.4" rx="0.3" ry="0.3"/>
</g>
<g transform="matrix(-1.9461,1.9461,-1.9461,-1.9461,69.3684,38.7822)">
	<ellipse transform="matrix(0.7071 -0.7071 0.7071 0.7071 0.2434 11.3162)" class="st0" cx="13.8" cy="5.4" rx="0.3" ry="0.3"/>
</g>
<g transform="matrix(-1.9461,1.9461,-1.9461,-1.9461,93.579,8.18947)">
	<ellipse transform="matrix(0.7071 -0.7071 0.7071 0.7071 0.7807 12.2799)" class="st0" cx="15.2" cy="5.2" rx="0.3" ry="0.3"/>
</g>
<g transform="matrix(-1.9461,1.9461,-1.9461,-1.9461,66.1773,35.5912)">
	<ellipse transform="matrix(0.7071 -0.7071 0.7071 0.7071 0.3613 11.2673)" class="st0" cx="13.8" cy="5.2" rx="0.3" ry="0.3"/>
</g>
<g transform="matrix(-1.9461,1.9461,-1.9461,-1.9461,93.2788,14.8719)">
	<ellipse transform="matrix(0.7071 -0.7071 0.7071 0.7071 0.6093 12.1997)" class="st0" cx="15" cy="5.4" rx="0.3" ry="0.3"/>
</g>
<g transform="matrix(-1.9461,1.9461,-1.9461,-1.9461,65.877,42.2736)">
	<ellipse transform="matrix(0.7071 -0.7071 0.7071 0.7071 0.1899 11.1872)" class="st0" cx="13.6" cy="5.4" rx="0.3" ry="0.3"/>
</g>
<g transform="matrix(-1.9461,1.9461,-1.9461,-1.9461,93.2788,14.8719)">
	<circle class="st0" cx="15" cy="5.4" r="0"/>
</g>
<g transform="matrix(-1.9461,1.9461,-1.9461,-1.9461,65.877,42.2736)">
	<ellipse transform="matrix(0.7071 -0.7071 0.7071 0.7071 0.1899 11.1872)" class="st0" cx="13.6" cy="5.4" rx="0" ry="0"/>
</g>
<g transform="matrix(-1.9461,1.9461,-1.9461,-1.9461,90.0877,11.6808)">
	<ellipse transform="matrix(0.7071 -0.7071 0.7071 0.7071 0.7273 12.1509)" class="st0" cx="15" cy="5.2" rx="0.3" ry="0.3"/>
</g>
<g transform="matrix(-1.9461,1.9461,-1.9461,-1.9461,62.686,39.0825)">
	<ellipse transform="matrix(0.7071 -0.7071 0.7071 0.7071 0.3079 11.1383)" class="st0" cx="13.6" cy="5.2" rx="0.3" ry="0.3"/>
</g>
<text transform="matrix(1 0 0 1 0 99)" class="st1 st2">Created by TS Graphics</text>
<text transform="matrix(1 0 0 1 0 104)" class="st1 st2">from the Noun Project</text>
</svg>
