<?xml version="1.0" encoding="utf-8"?>
<!-- Generator: Adobe Illustrator 19.2.1, SVG Export Plug-In . SVG Version: 6.00 Build 0)  -->
<svg version="1.1" id="Lager_1" xmlns="http://www.w3.org/2000/svg" xmlns:xlink="http://www.w3.org/1999/xlink" x="0px" y="0px"
	 viewBox="0 0 100 125" style="enable-background:new 0 0 100 125;" xml:space="preserve">
<style type="text/css">
	.st0{fill:#FFFFFF;}
	.st1{font-family:'Arial-BoldMT';}
	.st2{font-size:5px;}
</style>
<path class="st0" d="M77.9,52H58.2l-6.3,8.5c-0.4,0.6-1.3,0.6-1.7,0L43.9,52H24.1v-8.6h53.8V52z M64.3,61.4H37.8V66h26.5V61.4z
	 M22.8,56.5V39.3c0-0.7-0.6-1.3-1.3-1.3h-9.6c-0.7,0-1.3,0.6-1.3,1.3v17.3c0,0.7,0.6,1.3,1.3,1.3h9.6C22.2,57.9,22.8,57.3,22.8,56.5
	z M91.5,56.5V39.3c0-0.7-0.6-1.3-1.3-1.3h-9.6c-0.7,0-1.3,0.6-1.3,1.3v17.3c0,0.7,0.6,1.3,1.3,1.3h9.6
	C90.9,57.9,91.5,57.3,91.5,56.5z"/>
<text transform="matrix(1 0 0 1 0 115)" class="st1 st2">Created by Chad Totaro</text>
<text transform="matrix(1 0 0 1 0 120)" class="st1 st2">from the Noun Project</text>
</svg>
