<?xml version="1.0" encoding="utf-8"?>
<!-- Generator: Adobe Illustrator 19.2.1, SVG Export Plug-In . SVG Version: 6.00 Build 0)  -->
<svg version="1.1" id="Lager_1" xmlns="http://www.w3.org/2000/svg" xmlns:xlink="http://www.w3.org/1999/xlink" x="0px" y="0px"
	 viewBox="0 0 100 125" style="enable-background:new 0 0 100 125;" xml:space="preserve">
<style type="text/css">
	.st0{fill:#FFFFFF;}
	.st1{font-family:'Arial-BoldMT';}
	.st2{font-size:5px;}
</style>
<g>
	<path class="st0" d="M50,86.8c-20.3,0-36.8-16.5-36.8-36.8c0-20.3,16.5-36.8,36.8-36.8c20.3,0,36.8,16.5,36.8,36.8
		C86.8,70.3,70.3,86.8,50,86.8z M50,16.2c-18.6,0-33.8,15.2-33.8,33.8c0,18.6,15.2,33.8,33.8,33.8S83.8,68.6,83.8,50
		C83.8,31.4,68.6,16.2,50,16.2z"/>
	<path class="st0" d="M50,66.7c-9.2,0-16.7-7.5-16.7-16.7S40.8,33.3,50,33.3S66.7,40.8,66.7,50S59.2,66.7,50,66.7z M50,35.3
		c-8.1,0-14.7,6.6-14.7,14.7S41.9,64.7,50,64.7c8.1,0,14.7-6.6,14.7-14.7S58.1,35.3,50,35.3z"/>
	<path class="st0" d="M50,63.6c-7.5,0-13.6-6.1-13.6-13.6S42.5,36.4,50,36.4S63.6,42.5,63.6,50S57.5,63.6,50,63.6z M50,37.4
		c-6.9,0-12.6,5.6-12.6,12.6S43.1,62.6,50,62.6c6.9,0,12.6-5.6,12.6-12.6S56.9,37.4,50,37.4z"/>
	<path class="st0" d="M50,81.8c0,0-0.2,0-0.6,0c-0.4,0-0.9,0-1.6-0.1c-0.3,0-0.7-0.1-1.1-0.1c-0.4-0.1-0.8-0.1-1.3-0.2
		c-0.9-0.1-2-0.3-3.1-0.6c-0.6-0.1-1.2-0.3-1.8-0.5c-0.6-0.2-1.2-0.4-1.8-0.6c-1.3-0.5-2.5-1.1-3.8-1.7c-1.3-0.7-2.6-1.5-3.8-2.4
		c-1.2-0.9-2.4-1.9-3.5-3c-1.1-1.1-2.1-2.3-3-3.5c-0.9-1.2-1.7-2.5-2.4-3.8c-0.7-1.3-1.3-2.6-1.7-3.8c-0.3-0.6-0.4-1.3-0.6-1.8
		c-0.2-0.6-0.3-1.2-0.5-1.8c-0.3-1.1-0.5-2.2-0.6-3.1c-0.1-0.5-0.1-0.9-0.2-1.3c0-0.4-0.1-0.8-0.1-1.1c-0.1-0.7,0-1.2-0.1-1.6
		c0-0.4,0-0.6,0-0.6h0.2c0,0,0,0.2,0.1,0.6c0.1,0.4,0.1,0.9,0.3,1.6c0.1,0.3,0.1,0.7,0.2,1.1c0.1,0.4,0.2,0.8,0.3,1.3
		c0.2,0.9,0.5,1.9,0.8,3c0.2,0.5,0.4,1.1,0.6,1.7c0.2,0.6,0.4,1.2,0.7,1.7c0.5,1.2,1.2,2.4,1.8,3.6c0.7,1.2,1.5,2.4,2.4,3.6
		c0.9,1.2,1.9,2.3,2.9,3.3c1,1.1,2.2,2,3.3,2.9c1.2,0.9,2.4,1.7,3.6,2.4c1.2,0.7,2.4,1.3,3.6,1.8c0.6,0.3,1.2,0.5,1.7,0.7
		c0.6,0.2,1.1,0.4,1.7,0.6c1.1,0.3,2.1,0.6,3,0.8c0.5,0.1,0.9,0.2,1.3,0.3c0.4,0.1,0.8,0.1,1.1,0.2c0.7,0.1,1.2,0.2,1.6,0.3
		c0.4,0.1,0.6,0.1,0.6,0.1L50,81.8z"/>
	<path class="st0" d="M50,18.2c0,0,0.2,0,0.6,0c0.4,0,0.9,0,1.6,0.1c0.3,0,0.7,0.1,1.1,0.1c0.4,0.1,0.8,0.1,1.3,0.2
		c0.9,0.1,2,0.3,3.1,0.6c0.6,0.1,1.2,0.3,1.8,0.5c0.6,0.2,1.2,0.4,1.8,0.6c1.3,0.5,2.5,1.1,3.8,1.7c1.3,0.7,2.6,1.5,3.8,2.4
		c1.2,0.9,2.4,1.9,3.5,3c1.1,1.1,2.1,2.3,3,3.5c0.9,1.2,1.7,2.5,2.4,3.8c0.7,1.3,1.3,2.6,1.7,3.8c0.3,0.6,0.4,1.3,0.6,1.8
		c0.2,0.6,0.3,1.2,0.5,1.8c0.3,1.1,0.5,2.2,0.6,3.1c0.1,0.5,0.1,0.9,0.2,1.3c0,0.4,0.1,0.8,0.1,1.1c0.1,0.7,0,1.2,0.1,1.6
		c0,0.4,0,0.6,0,0.6h-0.2c0,0,0-0.2-0.1-0.6c-0.1-0.4-0.1-0.9-0.3-1.6c-0.1-0.3-0.1-0.7-0.2-1.1c-0.1-0.4-0.2-0.8-0.3-1.3
		c-0.2-0.9-0.5-1.9-0.8-3c-0.2-0.5-0.4-1.1-0.6-1.7c-0.2-0.6-0.4-1.2-0.7-1.7c-0.5-1.2-1.2-2.4-1.8-3.6c-0.7-1.2-1.5-2.4-2.4-3.6
		c-0.9-1.2-1.9-2.3-2.9-3.3c-1.1-1.1-2.2-2-3.3-2.9c-1.2-0.9-2.4-1.7-3.6-2.4c-1.2-0.7-2.4-1.3-3.6-1.8c-0.6-0.3-1.2-0.5-1.7-0.7
		c-0.6-0.2-1.1-0.4-1.7-0.6c-1.1-0.3-2.1-0.6-3-0.8c-0.5-0.1-0.9-0.2-1.3-0.3c-0.4-0.1-0.8-0.1-1.1-0.2c-0.7-0.1-1.2-0.2-1.6-0.3
		c-0.4-0.1-0.6-0.1-0.6-0.1L50,18.2z"/>
	<path class="st0" d="M54.9,59.2h-9.8c-0.3,0-0.5-0.1-0.7-0.4l-4.9-8.5c-0.1-0.2-0.1-0.5,0-0.8l4.9-8.5c0.1-0.2,0.4-0.4,0.7-0.4h9.8
		c0.3,0,0.5,0.1,0.7,0.4l4.9,8.5c0.1,0.2,0.1,0.5,0,0.8l-4.9,8.5C55.4,59.1,55.2,59.2,54.9,59.2z M45.6,57.7h8.9l4.4-7.7l-4.4-7.7
		h-8.9L41.1,50L45.6,57.7z"/>
	<path class="st0" d="M50,55.3c-3,0-5.3-2.4-5.3-5.3c0-2.9,2.4-5.3,5.3-5.3c2.9,0,5.3,2.4,5.3,5.3C55.3,52.9,52.9,55.3,50,55.3z
		 M50,46.2c-2.1,0-3.8,1.7-3.8,3.8c0,2.1,1.7,3.8,3.8,3.8c2.1,0,3.8-1.7,3.8-3.8C53.8,47.9,52.1,46.2,50,46.2z"/>
</g>
<text transform="matrix(1 0 0 1 0 115)" class="st1 st2">Created by Fernando Affonso</text>
<text transform="matrix(1 0 0 1 0 120)" class="st1 st2">from the Noun Project</text>
</svg>
